<svg xmlns="http://www.w3.org/2000/svg" width="171.17000000000002" height="35" viewBox="0 0 171.17000000000002 35"><rect class="svg__rect" x="0" y="0" width="115.31" height="35" fill="#B71C1C"/><rect class="svg__rect" x="113.31" y="0" width="57.860000000000014" height="35" fill="#CFD8DC"/><path class="svg__text" d="M15.69 22L14.22 22L14.22 13.47L16.14 13.47L18.60 20.01L21.06 13.47L22.97 13.47L22.97 22L21.49 22L21.49 19.19L21.64 15.43L19.12 22L18.06 22L15.55 15.43L15.69 19.19L15.69 22ZM28.49 22L26.95 22L30.17 13.47L31.50 13.47L34.73 22L33.18 22L32.49 20.01L29.18 20.01L28.49 22ZM30.83 15.28L29.60 18.82L32.07 18.82L30.83 15.28ZM41.14 22L38.69 22L38.69 13.47L41.21 13.47Q42.34 13.47 43.21 13.97Q44.09 14.48 44.57 15.40Q45.05 16.33 45.05 17.52L45.05 17.52L45.05 17.95Q45.05 19.16 44.57 20.08Q44.08 21.00 43.19 21.50Q42.30 22 41.14 22L41.14 22ZM40.17 14.66L40.17 20.82L41.14 20.82Q42.30 20.82 42.93 20.09Q43.55 19.36 43.56 17.99L43.56 17.99L43.56 17.52Q43.56 16.13 42.96 15.40Q42.35 14.66 41.21 14.66L41.21 14.66L40.17 14.66ZM55.09 22L49.51 22L49.51 13.47L55.05 13.47L55.05 14.66L51.00 14.66L51.00 17.02L54.50 17.02L54.50 18.19L51.00 18.19L51.00 20.82L55.09 20.82L55.09 22ZM66.65 22L64.68 13.47L66.15 13.47L67.47 19.88L69.10 13.47L70.34 13.47L71.96 19.89L73.27 13.47L74.74 13.47L72.77 22L71.35 22L69.73 15.77L68.07 22L66.65 22ZM80.38 22L78.90 22L78.90 13.47L80.38 13.47L80.38 22ZM86.87 14.66L84.23 14.66L84.23 13.47L91.00 13.47L91.00 14.66L88.34 14.66L88.34 22L86.87 22L86.87 14.66ZM96.24 22L94.75 22L94.75 13.47L96.24 13.47L96.24 17.02L100.05 17.02L100.05 13.47L101.53 13.47L101.53 22L100.05 22L100.05 18.21L96.24 18.21L96.24 22Z" fill="#FFFFFF"/><path class="svg__text" d="M126.91 21.24L126.91 21.24L127.69 19.49Q128.25 19.86 129.00 20.09Q129.74 20.32 130.46 20.32L130.46 20.32Q131.83 20.32 131.83 19.64L131.83 19.64Q131.83 19.28 131.44 19.11Q131.05 18.93 130.19 18.74L130.19 18.74Q129.24 18.53 128.60 18.30Q127.97 18.06 127.51 17.55Q127.06 17.03 127.06 16.16L127.06 16.16Q127.06 15.39 127.48 14.77Q127.90 14.15 128.73 13.79Q129.57 13.43 130.77 13.43L130.77 13.43Q131.60 13.43 132.41 13.62Q133.21 13.80 133.83 14.17L133.83 14.17L133.09 15.93Q131.89 15.28 130.76 15.28L130.76 15.28Q130.05 15.28 129.73 15.49Q129.41 15.70 129.41 16.04L129.41 16.04Q129.41 16.37 129.79 16.54Q130.18 16.71 131.03 16.89L131.03 16.89Q131.99 17.10 132.62 17.33Q133.25 17.56 133.71 18.07Q134.17 18.58 134.17 19.46L134.17 19.46Q134.17 20.21 133.75 20.83Q133.33 21.44 132.49 21.80Q131.65 22.17 130.45 22.17L130.45 22.17Q129.43 22.17 128.47 21.92Q127.51 21.67 126.91 21.24ZM138.32 17.80L138.32 17.80Q138.32 16.55 138.92 15.55Q139.53 14.56 140.59 14.00Q141.65 13.43 142.98 13.43L142.98 13.43Q144.31 13.43 145.38 14.00Q146.44 14.56 147.05 15.55Q147.65 16.55 147.65 17.80L147.65 17.80Q147.65 19.22 146.88 20.30Q146.11 21.39 144.80 21.85L144.80 21.85Q145.04 22.12 145.27 22.23Q145.50 22.33 145.78 22.33L145.78 22.33Q146.49 22.33 147.06 21.75L147.06 21.75L148.09 22.97Q147.67 23.49 147.06 23.76Q146.45 24.03 145.73 24.03L145.73 24.03Q145.03 24.03 144.47 23.85Q143.91 23.67 143.34 23.25Q142.77 22.84 142.06 22.09L142.06 22.09Q140.97 21.91 140.12 21.31Q139.26 20.72 138.79 19.81Q138.32 18.89 138.32 17.80ZM140.72 17.80L140.72 17.80Q140.72 18.51 141.02 19.05Q141.32 19.60 141.84 19.90Q142.35 20.20 142.98 20.20L142.98 20.20Q143.62 20.20 144.14 19.90Q144.65 19.60 144.95 19.05Q145.25 18.51 145.25 17.80L145.25 17.80Q145.25 17.09 144.95 16.54Q144.65 16 144.14 15.70Q143.62 15.40 142.98 15.40L142.98 15.40Q142.35 15.40 141.83 15.70Q141.32 16 141.02 16.54Q140.72 17.09 140.72 17.80ZM158.77 22L152.38 22L152.38 13.60L154.76 13.60L154.76 20.11L158.77 20.11L158.77 22Z" fill="#042340" x="126.31"/></svg>