<svg xmlns="http://www.w3.org/2000/svg" width="135.3" height="35" viewBox="0 0 135.3 35"><rect class="svg__rect" x="0" y="0" width="104.38000000000001" height="35" fill="#D02020"/><rect class="svg__rect" x="102.38000000000001" y="0" width="32.92" height="35" fill="#0B4761"/><path class="svg__text" d="M13.91 18.00L13.91 18.00L13.91 17.52Q13.91 16.28 14.35 15.32Q14.80 14.37 15.60 13.86Q16.41 13.35 17.45 13.35L17.45 13.35Q18.50 13.35 19.31 13.85Q20.11 14.35 20.55 15.29Q20.99 16.23 21.00 17.48L21.00 17.48L21.00 17.96Q21.00 19.17 20.61 20.06Q20.23 20.95 19.54 21.47L19.54 21.47L21.00 22.61L20.04 23.48L18.23 22.04Q17.87 22.12 17.46 22.12L17.46 22.12Q16.43 22.12 15.61 21.61Q14.80 21.10 14.36 20.17Q13.92 19.23 13.91 18.00ZM15.39 17.46L15.39 17.96Q15.39 19.34 15.94 20.12Q16.48 20.90 17.46 20.90L17.46 20.90Q18.45 20.90 18.98 20.15Q19.51 19.40 19.51 17.96L19.51 17.96L19.51 17.51Q19.51 16.07 18.97 15.33Q18.43 14.58 17.45 14.58L17.45 14.58Q16.49 14.58 15.95 15.33Q15.41 16.09 15.39 17.46L15.39 17.46ZM25.36 19.16L25.36 19.16L25.36 13.47L26.83 13.47L26.83 19.18Q26.83 20.03 27.27 20.48Q27.70 20.93 28.54 20.93L28.54 20.93Q30.25 20.93 30.25 19.13L30.25 19.13L30.25 13.47L31.73 13.47L31.73 19.17Q31.73 20.53 30.86 21.32Q29.99 22.12 28.54 22.12L28.54 22.12Q27.08 22.12 26.22 21.33Q25.36 20.55 25.36 19.16ZM41.88 22L36.30 22L36.30 13.47L41.84 13.47L41.84 14.66L37.78 14.66L37.78 17.02L41.29 17.02L41.29 18.19L37.78 18.19L37.78 20.82L41.88 20.82L41.88 22ZM45.64 19.42L45.64 19.42L47.12 19.42Q47.12 20.15 47.60 20.55Q48.08 20.95 48.98 20.95L48.98 20.95Q49.75 20.95 50.14 20.63Q50.53 20.32 50.53 19.80L50.53 19.80Q50.53 19.24 50.14 18.94Q49.74 18.63 48.71 18.32Q47.68 18.01 47.07 17.63L47.07 17.63Q45.90 16.90 45.90 15.72L45.90 15.72Q45.90 14.69 46.75 14.02Q47.59 13.35 48.93 13.35L48.93 13.35Q49.82 13.35 50.52 13.68Q51.21 14.01 51.61 14.61Q52.01 15.22 52.01 15.96L52.01 15.96L50.53 15.96Q50.53 15.29 50.11 14.91Q49.70 14.54 48.92 14.54L48.92 14.54Q48.19 14.54 47.79 14.85Q47.39 15.16 47.39 15.71L47.39 15.71Q47.39 16.18 47.82 16.50Q48.25 16.81 49.25 17.10Q50.25 17.40 50.85 17.78Q51.45 18.16 51.73 18.65Q52.02 19.13 52.02 19.79L52.02 19.79Q52.02 20.86 51.20 21.49Q50.38 22.12 48.98 22.12L48.98 22.12Q48.06 22.12 47.28 21.77Q46.50 21.43 46.07 20.83Q45.64 20.22 45.64 19.42ZM57.99 14.66L55.35 14.66L55.35 13.47L62.12 13.47L62.12 14.66L59.46 14.66L59.46 22L57.99 22L57.99 14.66ZM67.44 22L65.96 22L65.96 13.47L67.44 13.47L67.44 22ZM71.98 18.00L71.98 18.00L71.98 17.52Q71.98 16.28 72.42 15.32Q72.86 14.37 73.67 13.86Q74.47 13.35 75.52 13.35Q76.56 13.35 77.37 13.85Q78.17 14.35 78.61 15.29Q79.05 16.23 79.06 17.48L79.06 17.48L79.06 17.96Q79.06 19.21 78.62 20.16Q78.19 21.10 77.38 21.61Q76.58 22.12 75.53 22.12L75.53 22.12Q74.49 22.12 73.68 21.61Q72.87 21.10 72.43 20.17Q71.98 19.23 71.98 18.00ZM73.46 17.46L73.46 17.96Q73.46 19.36 74.01 20.13Q74.56 20.90 75.53 20.90L75.53 20.90Q76.51 20.90 77.04 20.15Q77.57 19.40 77.57 17.96L77.57 17.96L77.57 17.51Q77.57 16.09 77.04 15.34Q76.50 14.58 75.52 14.58L75.52 14.58Q74.56 14.58 74.02 15.33Q73.47 16.09 73.46 17.46L73.46 17.46ZM85.00 22L83.52 22L83.52 13.47L85.00 13.47L88.82 19.54L88.82 13.47L90.29 13.47L90.29 22L88.81 22L85.00 15.95L85.00 22Z" fill="#FFFFFF"/><path class="svg__text" d="M115.82 21.34L115.82 21.34L116.68 19.55Q117.18 19.88 117.79 20.07Q118.40 20.25 119.01 20.25L119.01 20.25Q119.61 20.25 119.98 20.01Q120.35 19.78 120.35 19.36L120.35 19.36Q120.35 18.94 119.99 18.72Q119.63 18.51 118.72 18.51L118.72 18.51L116.44 18.51L116.86 13.60L122.21 13.60L122.21 15.44L118.82 15.44L118.72 16.66L119.28 16.66Q121.04 16.66 121.89 17.38Q122.74 18.10 122.74 19.30L122.74 19.30Q122.74 20.08 122.34 20.73Q121.94 21.39 121.11 21.78Q120.29 22.17 119.08 22.17L119.08 22.17Q118.19 22.17 117.32 21.95Q116.45 21.74 115.82 21.34Z" fill="#FFFFFF" x="115.38000000000001"/></svg>